<svg width="171" height="40" viewBox="0 0 171 40" fill="none" xmlns="http://www.w3.org/2000/svg">
<path d="M20.2923 12.1121C19.8223 7.95469 16.7655 0 13.0055 0C11.2285 0 9.46516 1.84454 8.03991 5.1921C7.0965 7.40521 6.39825 10.0883 6.20889 12.1104C5.71183 12.2237 5.34326 12.6666 5.34326 13.1975C5.34326 13.8146 5.84201 14.3134 6.4608 14.3134C7.07791 14.3134 7.57666 13.8146 7.57666 13.1975C7.57666 12.7275 7.28586 12.3268 6.87502 12.1611C7.05593 10.2118 7.73728 7.6081 8.65532 5.45416C9.41613 3.6671 10.9935 0.667821 13.0071 0.667821C16.0842 0.667821 19.1832 7.96483 19.633 12.156C19.2137 12.3167 18.9178 12.7224 18.9178 13.1975C18.9178 13.8146 19.4165 14.3134 20.0336 14.3134C20.6508 14.3134 21.1512 13.8146 21.1512 13.1975C21.1512 12.6717 20.786 12.2304 20.2957 12.1138L20.2923 12.1121Z" fill="#CC9901"/>
<path d="M0.048225 18.0717C0.048225 17.3785 -0.00756713 16.6566 0.0752766 15.9617C0.15812 15.2956 0.352548 14.6295 0.491184 13.9904C1.13026 14.2119 1.82345 14.3235 2.37799 14.6565C5.70865 16.8223 9.0393 19.0151 12.2871 21.2908C13.4537 22.0956 14.2585 21.984 15.3675 21.2079C18.7269 18.8207 22.1962 16.545 25.6385 14.2677C26.9437 13.4071 27.6098 13.7402 27.5811 15.3497C27.5523 17.4039 27.4695 19.4851 27.2751 21.5123C27.2193 22.011 26.7746 22.623 26.3587 22.9561C22.6662 25.5936 18.9197 28.1465 15.2002 30.7282C14.0894 31.5059 13.0631 31.3115 12.0082 30.5625C8.78739 28.3139 5.59537 26.0382 2.26471 23.9553C0.599387 22.9291 -0.205382 21.7067 0.0448403 19.7641C0.100633 19.1808 0.0448403 18.6263 0.0448403 18.07L0.048225 18.0717Z" fill="#2E1834"/>
<path d="M0.269775 26.2884C3.32316 28.3426 6.07222 30.1753 8.79254 32.0621C9.76468 32.7283 9.76468 33.5888 8.79254 34.282C6.07222 36.1418 3.29611 37.9745 0.269775 39.9999C0.269775 35.337 0.269775 31.0055 0.269775 26.2867V26.2884Z" fill="#CC9901"/>
<path d="M27.1689 26.4271C27.1689 31.09 27.1689 35.2271 27.1689 39.3068C26.9187 39.3626 26.78 39.4184 26.7242 39.3896C24.0039 37.6127 21.2565 35.8358 18.5633 33.976C18.286 33.7816 18.2032 32.6708 18.4246 32.5051C21.1737 30.5067 23.9769 28.5912 27.1689 26.4254V26.4271Z" fill="#CC9901"/>
<path d="M20.2923 12.1121C19.8223 7.95469 16.7655 0 13.0055 0C11.2285 0 9.46516 1.84454 8.03991 5.1921C7.0965 7.40521 6.39825 10.0883 6.20889 12.1104C5.71183 12.2237 5.34326 12.6666 5.34326 13.1975C5.34326 13.8146 5.84201 14.3134 6.4608 14.3134C7.07791 14.3134 7.57666 13.8146 7.57666 13.1975C7.57666 12.7275 7.28586 12.3268 6.87502 12.1611C7.05593 10.2118 7.73728 7.6081 8.65532 5.45416C9.41613 3.6671 10.9935 0.667821 13.0071 0.667821C16.0842 0.667821 19.1832 7.96483 19.633 12.156C19.2137 12.3167 18.9178 12.7224 18.9178 13.1975C18.9178 13.8146 19.4165 14.3134 20.0336 14.3134C20.6508 14.3134 21.1512 13.8146 21.1512 13.1975C21.1512 12.6717 20.786 12.2304 20.2957 12.1138L20.2923 12.1121Z" fill="#CC9901"/>
<path d="M32.9543 29V18.7458H35.7942V21.5476L35.2606 20.728C35.6164 20.0292 36.1183 19.5019 36.7663 19.1461C37.427 18.7776 38.1767 18.5933 39.0154 18.5933C39.9556 18.5933 40.7752 18.8348 41.4741 19.3176C42.1856 19.7878 42.6558 20.512 42.8845 21.4904L41.8362 21.2045C42.1793 20.404 42.7257 19.7687 43.4753 19.2986C44.2377 18.8284 45.1081 18.5933 46.0865 18.5933C46.8998 18.5933 47.6177 18.7585 48.2403 19.0889C48.8756 19.4066 49.3712 19.9021 49.727 20.5756C50.0955 21.2363 50.2797 22.0876 50.2797 23.1296V29H47.3064V23.587C47.3064 22.7611 47.1348 22.1512 46.7918 21.7573C46.4487 21.3634 45.9658 21.1664 45.3432 21.1664C44.9112 21.1664 44.5236 21.2681 44.1806 21.4714C43.8375 21.662 43.5706 21.9542 43.38 22.3481C43.1895 22.742 43.0942 23.2439 43.0942 23.8539V29H40.1208V23.587C40.1208 22.7611 39.9493 22.1512 39.6062 21.7573C39.2758 21.3634 38.7993 21.1664 38.1767 21.1664C37.7447 21.1664 37.3572 21.2681 37.0141 21.4714C36.671 21.662 36.4042 21.9542 36.2136 22.3481C36.023 22.742 35.9277 23.2439 35.9277 23.8539V29H32.9543Z" fill="#CC9901"/>
<path d="M59.2345 29V26.9987L59.0439 26.5603V22.9771C59.0439 22.3418 58.847 21.8462 58.4531 21.4904C58.0719 21.1347 57.481 20.9568 56.6805 20.9568C56.1341 20.9568 55.5941 21.0457 55.0604 21.2236C54.5395 21.3888 54.0947 21.6175 53.7262 21.9098L52.6589 19.8322C53.218 19.4383 53.8914 19.1334 54.6792 18.9174C55.467 18.7014 56.2676 18.5933 57.0808 18.5933C58.6437 18.5933 59.8571 18.9618 60.7212 19.6988C61.5852 20.4358 62.0173 21.5857 62.0173 23.1486V29H59.2345ZM56.1087 29.1525C55.3082 29.1525 54.6221 29.0191 54.0503 28.7522C53.4785 28.4727 53.0401 28.0978 52.7351 27.6277C52.4302 27.1576 52.2777 26.6302 52.2777 26.0457C52.2777 25.4358 52.4238 24.9021 52.7161 24.4447C53.021 23.9873 53.4975 23.6315 54.1456 23.3774C54.7936 23.1105 55.6386 22.9771 56.6805 22.9771H59.4061V24.7115H57.0045C56.3057 24.7115 55.8228 24.8259 55.556 25.0546C55.3019 25.2833 55.1748 25.5692 55.1748 25.9123C55.1748 26.2935 55.3209 26.5985 55.6132 26.8272C55.9181 27.0432 56.3311 27.1512 56.8521 27.1512C57.3476 27.1512 57.7923 27.0368 58.1862 26.8081C58.5801 26.5667 58.866 26.2173 59.0439 25.7598L59.5014 27.1321C59.2854 27.7929 58.8915 28.2948 58.3197 28.6379C57.7479 28.9809 57.0109 29.1525 56.1087 29.1525ZM64.7083 29V18.7458H67.5482V21.5476L67.0145 20.728C67.3703 20.0292 67.8722 19.5019 68.5202 19.1461C69.181 18.7776 69.9306 18.5933 70.7693 18.5933C71.7096 18.5933 72.5291 18.8348 73.228 19.3176C73.9396 19.7878 74.4097 20.512 74.6384 21.4904L73.5901 21.2045C73.9332 20.404 74.4796 19.7687 75.2293 19.2986C75.9917 18.8284 76.8621 18.5933 77.8405 18.5933C78.6537 18.5933 79.3716 18.7585 79.9942 19.0889C80.6295 19.4066 81.1251 19.9021 81.4809 20.5756C81.8494 21.2363 82.0336 22.0876 82.0336 23.1296V29H79.0603V23.587C79.0603 22.7611 78.8888 22.1512 78.5457 21.7573C78.2026 21.3634 77.7198 21.1664 77.0971 21.1664C76.6651 21.1664 76.2776 21.2681 75.9345 21.4714C75.5914 21.662 75.3246 21.9542 75.134 22.3481C74.9434 22.742 74.8481 23.2439 74.8481 23.8539V29H71.8747V23.587C71.8747 22.7611 71.7032 22.1512 71.3601 21.7573C71.0298 21.3634 70.5533 21.1664 69.9306 21.1664C69.4986 21.1664 69.1111 21.2681 68.768 21.4714C68.4249 21.662 68.1581 21.9542 67.9675 22.3481C67.7769 22.742 67.6816 23.2439 67.6816 23.8539V29H64.7083ZM90.9885 29V26.9987L90.7979 26.5603V22.9771C90.7979 22.3418 90.6009 21.8462 90.207 21.4904C89.8258 21.1347 89.235 20.9568 88.4344 20.9568C87.8881 20.9568 87.348 21.0457 86.8144 21.2236C86.2934 21.3888 85.8487 21.6175 85.4802 21.9098L84.4128 19.8322C84.9719 19.4383 85.6454 19.1334 86.4332 18.9174C87.221 18.7014 88.0215 18.5933 88.8347 18.5933C90.3976 18.5933 91.6111 18.9618 92.4751 19.6988C93.3392 20.4358 93.7712 21.5857 93.7712 23.1486V29H90.9885ZM87.8626 29.1525C87.0621 29.1525 86.376 29.0191 85.8042 28.7522C85.2324 28.4727 84.794 28.0978 84.4891 27.6277C84.1841 27.1576 84.0316 26.6302 84.0316 26.0457C84.0316 25.4358 84.1778 24.9021 84.47 24.4447C84.775 23.9873 85.2515 23.6315 85.8995 23.3774C86.5475 23.1105 87.3925 22.9771 88.4344 22.9771H91.16V24.7115H88.7585C88.0596 24.7115 87.5767 24.8259 87.3099 25.0546C87.0558 25.2833 86.9287 25.5692 86.9287 25.9123C86.9287 26.2935 87.0748 26.5985 87.3671 26.8272C87.672 27.0432 88.085 27.1512 88.606 27.1512C89.1015 27.1512 89.5463 27.0368 89.9402 26.8081C90.3341 26.5667 90.62 26.2173 90.7979 25.7598L91.2553 27.1321C91.0393 27.7929 90.6454 28.2948 90.0736 28.6379C89.5018 28.9809 88.7648 29.1525 87.8626 29.1525ZM98.9209 26.9034L98.9971 23.2821L103.781 18.7458H107.326L102.733 23.4155L101.189 24.6734L98.9209 26.9034ZM96.4622 29V14.8576H99.4355V29H96.4622ZM104.105 29L100.636 24.6925L102.504 22.3862L107.707 29H104.105ZM113.612 29.1525C112.443 29.1525 111.414 28.9238 110.525 28.4663C109.648 28.0089 108.968 27.3863 108.485 26.5985C108.002 25.798 107.761 24.8894 107.761 23.8729C107.761 22.8437 107.996 21.9352 108.466 21.1474C108.949 20.3468 109.604 19.7242 110.429 19.2795C111.255 18.8221 112.189 18.5933 113.231 18.5933C114.235 18.5933 115.137 18.8094 115.938 19.2414C116.751 19.6607 117.393 20.2706 117.863 21.0711C118.333 21.8589 118.568 22.8056 118.568 23.911C118.568 24.0254 118.562 24.1588 118.549 24.3113C118.536 24.4511 118.524 24.5845 118.511 24.7115H110.182V22.9771H116.948L115.804 23.4917C115.804 22.958 115.696 22.4943 115.48 22.1004C115.264 21.7064 114.966 21.4015 114.584 21.1855C114.203 20.9568 113.759 20.8424 113.25 20.8424C112.742 20.8424 112.291 20.9568 111.897 21.1855C111.516 21.4015 111.217 21.7128 111.001 22.1194C110.785 22.5133 110.677 22.9835 110.677 23.5298V23.9873C110.677 24.5464 110.798 25.0419 111.039 25.4739C111.293 25.8933 111.643 26.2173 112.088 26.446C112.545 26.662 113.079 26.77 113.689 26.77C114.235 26.77 114.712 26.6874 115.118 26.5222C115.537 26.357 115.919 26.1093 116.262 25.7789L117.844 27.4943C117.374 28.028 116.783 28.4409 116.071 28.7332C115.36 29.0127 114.54 29.1525 113.612 29.1525ZM124.741 29.1525C123.534 29.1525 122.593 28.8475 121.92 28.2376C121.246 27.615 120.91 26.6938 120.91 25.4739V16.4777H123.883V25.4358C123.883 25.8678 123.997 26.2046 124.226 26.446C124.455 26.6747 124.766 26.7891 125.16 26.7891C125.63 26.7891 126.03 26.662 126.361 26.4079L127.161 28.5044C126.856 28.7205 126.488 28.8856 126.056 29C125.636 29.1017 125.198 29.1525 124.741 29.1525ZM119.328 21.033V18.7458H126.437V21.033H119.328Z" fill="#2E1834"/>
<path d="M33.182 38L32.152 32.75H32.802L33.732 37.62H33.412L36.192 32.75H36.792L37.752 37.62H37.432L40.172 32.75H40.862L37.892 38H37.202L36.262 33.42H36.482L33.862 38H33.182ZM44.4511 32.7C44.9244 32.7 45.3111 32.7933 45.6111 32.98C45.9178 33.16 46.1278 33.4233 46.2411 33.77C46.3611 34.1167 46.3711 34.53 46.2711 35.01L45.6711 38H44.9611L45.5611 35C45.6678 34.48 45.6111 34.0733 45.3911 33.78C45.1778 33.4867 44.7978 33.34 44.2511 33.34C43.6911 33.34 43.2244 33.4933 42.8511 33.8C42.4844 34.1067 42.2378 34.5667 42.1111 35.18L41.5511 38H40.8411L42.3211 30.58H43.0311L42.2911 34.26L42.1111 34C42.3644 33.5467 42.6911 33.2167 43.0911 33.01C43.4978 32.8033 43.9511 32.7 44.4511 32.7ZM49.9989 38.05C49.4989 38.05 49.0622 37.96 48.6889 37.78C48.3222 37.5933 48.0389 37.3333 47.8389 37C47.6456 36.6667 47.5489 36.27 47.5489 35.81C47.5489 35.21 47.6756 34.6767 47.9289 34.21C48.1822 33.7433 48.5289 33.3767 48.9689 33.11C49.4089 32.8367 49.9056 32.7 50.4589 32.7C50.9256 32.7 51.3289 32.79 51.6689 32.97C52.0089 33.1433 52.2722 33.3967 52.4589 33.73C52.6522 34.0633 52.7489 34.4633 52.7489 34.93C52.7489 35.0367 52.7422 35.1467 52.7289 35.26C52.7156 35.3667 52.6989 35.47 52.6789 35.57H48.0689L48.1589 35.04H52.3489L52.0589 35.24C52.1256 34.82 52.0956 34.4667 51.9689 34.18C51.8422 33.8933 51.6456 33.6767 51.3789 33.53C51.1189 33.3767 50.8056 33.3 50.4389 33.3C50.0122 33.3 49.6322 33.4067 49.2989 33.62C48.9656 33.8267 48.7056 34.1167 48.5189 34.49C48.3322 34.8567 48.2389 35.2867 48.2389 35.78C48.2389 36.3067 48.3889 36.7133 48.6889 37C48.9956 37.28 49.4522 37.42 50.0589 37.42C50.4122 37.42 50.7389 37.3633 51.0389 37.25C51.3389 37.13 51.5856 36.9667 51.7789 36.76L52.0989 37.27C51.8522 37.5167 51.5422 37.71 51.1689 37.85C50.8022 37.9833 50.4122 38.05 49.9989 38.05ZM53.6341 38L54.6741 32.75H55.3541L55.0541 34.3L54.9741 34.03C55.2074 33.57 55.5141 33.2333 55.8941 33.02C56.2807 32.8067 56.7607 32.7 57.3341 32.7L57.2041 33.39C57.1707 33.39 57.1374 33.39 57.1041 33.39C57.0774 33.3833 57.0441 33.38 57.0041 33.38C56.4441 33.38 55.9807 33.5433 55.6141 33.87C55.2541 34.19 55.0074 34.6767 54.8741 35.33L54.3441 38H53.6341ZM59.9208 38.05C59.4208 38.05 58.9841 37.96 58.6108 37.78C58.2441 37.5933 57.9608 37.3333 57.7608 37C57.5674 36.6667 57.4708 36.27 57.4708 35.81C57.4708 35.21 57.5974 34.6767 57.8508 34.21C58.1041 33.7433 58.4508 33.3767 58.8908 33.11C59.3308 32.8367 59.8274 32.7 60.3808 32.7C60.8474 32.7 61.2508 32.79 61.5908 32.97C61.9308 33.1433 62.1941 33.3967 62.3808 33.73C62.5741 34.0633 62.6708 34.4633 62.6708 34.93C62.6708 35.0367 62.6641 35.1467 62.6508 35.26C62.6374 35.3667 62.6208 35.47 62.6008 35.57H57.9908L58.0808 35.04H62.2708L61.9808 35.24C62.0474 34.82 62.0174 34.4667 61.8908 34.18C61.7641 33.8933 61.5674 33.6767 61.3008 33.53C61.0408 33.3767 60.7274 33.3 60.3608 33.3C59.9341 33.3 59.5541 33.4067 59.2208 33.62C58.8874 33.8267 58.6274 34.1167 58.4408 34.49C58.2541 34.8567 58.1608 35.2867 58.1608 35.78C58.1608 36.3067 58.3108 36.7133 58.6108 37C58.9174 37.28 59.3741 37.42 59.9808 37.42C60.3341 37.42 60.6608 37.3633 60.9608 37.25C61.2608 37.13 61.5074 36.9667 61.7008 36.76L62.0208 37.27C61.7741 37.5167 61.4641 37.71 61.0908 37.85C60.7241 37.9833 60.3341 38.05 59.9208 38.05ZM66.1731 38L67.2131 32.75H67.9231L66.8831 38H66.1731ZM67.8631 31.59C67.7231 31.59 67.6065 31.5433 67.5131 31.45C67.4265 31.3567 67.3831 31.2467 67.3831 31.12C67.3831 30.9733 67.4331 30.8467 67.5331 30.74C67.6398 30.6333 67.7731 30.58 67.9331 30.58C68.0798 30.58 68.1965 30.6233 68.2831 30.71C68.3765 30.7967 68.4231 30.9067 68.4231 31.04C68.4231 31.2 68.3698 31.3333 68.2631 31.44C68.1631 31.54 68.0298 31.59 67.8631 31.59ZM76.3387 32.7C76.812 32.7 77.1953 32.7933 77.4887 32.98C77.7887 33.16 77.9953 33.4233 78.1087 33.77C78.222 34.1167 78.2287 34.53 78.1287 35.01L77.5287 38H76.8187L77.4187 35C77.5253 34.48 77.4753 34.0733 77.2687 33.78C77.0687 33.4867 76.702 33.34 76.1687 33.34C75.642 33.34 75.1987 33.4867 74.8387 33.78C74.4853 34.0733 74.2487 34.5133 74.1287 35.1L73.5487 38H72.8387L73.4387 35C73.5453 34.48 73.4953 34.0733 73.2887 33.78C73.082 33.4867 72.7153 33.34 72.1887 33.34C71.6487 33.34 71.202 33.4933 70.8487 33.8C70.4953 34.1067 70.2553 34.5667 70.1287 35.18L69.5687 38H68.8587L69.8987 32.75H70.5787L70.2787 34.26L70.1287 34C70.382 33.5467 70.702 33.2167 71.0887 33.01C71.4753 32.8033 71.912 32.7 72.3987 32.7C72.7653 32.7 73.0787 32.7633 73.3387 32.89C73.6053 33.01 73.812 33.19 73.9587 33.43C74.112 33.6633 74.1953 33.9433 74.2087 34.27L73.8387 34.19C74.0987 33.69 74.442 33.3167 74.8687 33.07C75.302 32.8233 75.792 32.7 76.3387 32.7ZM86.9441 32.7C87.4175 32.7 87.8008 32.7933 88.0941 32.98C88.3941 33.16 88.6008 33.4233 88.7141 33.77C88.8275 34.1167 88.8341 34.53 88.7341 35.01L88.1341 38H87.4241L88.0241 35C88.1308 34.48 88.0808 34.0733 87.8741 33.78C87.6741 33.4867 87.3075 33.34 86.7741 33.34C86.2475 33.34 85.8041 33.4867 85.4441 33.78C85.0908 34.0733 84.8541 34.5133 84.7341 35.1L84.1541 38H83.4441L84.0441 35C84.1508 34.48 84.1008 34.0733 83.8941 33.78C83.6875 33.4867 83.3208 33.34 82.7941 33.34C82.2541 33.34 81.8075 33.4933 81.4541 33.8C81.1008 34.1067 80.8608 34.5667 80.7341 35.18L80.1741 38H79.4641L80.5041 32.75H81.1841L80.8841 34.26L80.7341 34C80.9875 33.5467 81.3075 33.2167 81.6941 33.01C82.0808 32.8033 82.5175 32.7 83.0041 32.7C83.3708 32.7 83.6841 32.7633 83.9441 32.89C84.2108 33.01 84.4175 33.19 84.5641 33.43C84.7175 33.6633 84.8008 33.9433 84.8141 34.27L84.4441 34.19C84.7041 33.69 85.0475 33.3167 85.4741 33.07C85.9075 32.8233 86.3975 32.7 86.9441 32.7ZM90.0696 38L91.1096 32.75H91.8196L90.7796 38H90.0696ZM91.7596 31.59C91.6196 31.59 91.5029 31.5433 91.4096 31.45C91.3229 31.3567 91.2796 31.2467 91.2796 31.12C91.2796 30.9733 91.3296 30.8467 91.4296 30.74C91.5363 30.6333 91.6696 30.58 91.8296 30.58C91.9763 30.58 92.0929 30.6233 92.1796 30.71C92.2729 30.7967 92.3196 30.9067 92.3196 31.04C92.3196 31.2 92.2663 31.3333 92.1596 31.44C92.0596 31.54 91.9263 31.59 91.7596 31.59ZM94.6952 39.99C94.2085 39.99 93.7652 39.92 93.3652 39.78C92.9652 39.6467 92.6285 39.4533 92.3552 39.2L92.7752 38.66C92.9885 38.8733 93.2652 39.0433 93.6052 39.17C93.9518 39.2967 94.3318 39.36 94.7452 39.36C95.4118 39.36 95.9285 39.2067 96.2952 38.9C96.6618 38.5933 96.9052 38.12 97.0252 37.48L97.3052 36.1L97.5752 35.24L97.6852 34.34L97.9952 32.75H98.6752L97.7552 37.36C97.5752 38.2867 97.2352 38.9567 96.7352 39.37C96.2352 39.7833 95.5552 39.99 94.6952 39.99ZM95.0452 37.8C94.5852 37.8 94.1785 37.7133 93.8252 37.54C93.4785 37.3667 93.2085 37.1233 93.0152 36.81C92.8218 36.49 92.7252 36.1133 92.7252 35.68C92.7252 35.2533 92.7985 34.86 92.9452 34.5C93.0918 34.14 93.2985 33.8267 93.5652 33.56C93.8318 33.2867 94.1485 33.0767 94.5152 32.93C94.8818 32.7767 95.2852 32.7 95.7252 32.7C96.1452 32.7 96.5185 32.7733 96.8452 32.92C97.1718 33.0667 97.4285 33.2867 97.6152 33.58C97.8085 33.8733 97.9052 34.2467 97.9052 34.7C97.9118 35.2733 97.7985 35.7967 97.5652 36.27C97.3318 36.7367 97.0018 37.11 96.5752 37.39C96.1485 37.6633 95.6385 37.8 95.0452 37.8ZM95.1852 37.17C95.6252 37.17 96.0152 37.07 96.3552 36.87C96.7018 36.67 96.9752 36.3967 97.1752 36.05C97.3752 35.6967 97.4752 35.2967 97.4752 34.85C97.4752 34.37 97.3218 33.9967 97.0152 33.73C96.7085 33.4567 96.2818 33.32 95.7352 33.32C95.2952 33.32 94.9018 33.42 94.5552 33.62C94.2085 33.82 93.9352 34.0967 93.7352 34.45C93.5418 34.7967 93.4452 35.1933 93.4452 35.64C93.4452 36.12 93.5985 36.4967 93.9052 36.77C94.2118 37.0367 94.6385 37.17 95.1852 37.17ZM99.6009 38L100.641 32.75H101.321L101.021 34.3L100.941 34.03C101.174 33.57 101.481 33.2333 101.861 33.02C102.248 32.8067 102.728 32.7 103.301 32.7L103.171 33.39C103.138 33.39 103.104 33.39 103.071 33.39C103.044 33.3833 103.011 33.38 102.971 33.38C102.411 33.38 101.948 33.5433 101.581 33.87C101.221 34.19 100.974 34.6767 100.841 35.33L100.311 38H99.6009ZM105.728 38.05C105.281 38.05 104.884 37.96 104.538 37.78C104.191 37.6 103.921 37.3433 103.728 37.01C103.534 36.6767 103.438 36.28 103.438 35.82C103.438 35.3733 103.511 34.96 103.658 34.58C103.804 34.2 104.011 33.87 104.278 33.59C104.544 33.3033 104.858 33.0833 105.218 32.93C105.584 32.7767 105.981 32.7 106.408 32.7C106.868 32.7 107.258 32.7833 107.578 32.95C107.898 33.11 108.144 33.3467 108.318 33.66C108.491 33.9667 108.578 34.34 108.578 34.78C108.578 35.4133 108.461 35.9767 108.228 36.47C107.994 36.9633 107.664 37.35 107.238 37.63C106.811 37.91 106.308 38.05 105.728 38.05ZM105.878 37.42C106.318 37.42 106.708 37.3167 107.048 37.11C107.394 36.8967 107.664 36.6033 107.858 36.23C108.058 35.8567 108.158 35.4333 108.158 34.96C108.158 34.44 108.004 34.0367 107.698 33.75C107.398 33.4633 106.974 33.32 106.428 33.32C105.994 33.32 105.604 33.4267 105.258 33.64C104.911 33.8533 104.638 34.1467 104.438 34.52C104.244 34.8867 104.148 35.31 104.148 35.79C104.148 36.3033 104.298 36.7033 104.598 36.99C104.904 37.2767 105.331 37.42 105.878 37.42ZM107.608 38L107.908 36.49L108.208 35.43L108.308 34.33L108.628 32.75H109.338L108.288 38H107.608ZM113.875 32.7C114.348 32.7 114.735 32.7933 115.035 32.98C115.342 33.16 115.552 33.4233 115.665 33.77C115.785 34.1167 115.795 34.53 115.695 35.01L115.095 38H114.385L114.985 35C115.092 34.48 115.035 34.0733 114.815 33.78C114.602 33.4867 114.222 33.34 113.675 33.34C113.115 33.34 112.648 33.4933 112.275 33.8C111.908 34.1067 111.662 34.5667 111.535 35.18L110.975 38H110.265L111.305 32.75H111.985L111.685 34.26L111.535 34C111.788 33.5467 112.115 33.2167 112.515 33.01C112.922 32.8033 113.375 32.7 113.875 32.7ZM118.693 38.05C118.393 38.05 118.136 37.9867 117.923 37.86C117.709 37.7267 117.559 37.54 117.473 37.3C117.393 37.06 117.386 36.7733 117.453 36.44L118.413 31.59H119.123L118.163 36.41C118.096 36.7367 118.119 36.99 118.233 37.17C118.353 37.35 118.569 37.44 118.883 37.44C119.029 37.44 119.173 37.42 119.313 37.38C119.453 37.3333 119.579 37.2633 119.693 37.17L119.863 37.71C119.696 37.8367 119.509 37.9267 119.303 37.98C119.096 38.0267 118.893 38.05 118.693 38.05ZM117.133 33.34L117.243 32.75H120.493L120.373 33.34H117.133ZM122.625 38.05C122.198 38.05 121.795 37.99 121.415 37.87C121.035 37.75 120.742 37.5967 120.535 37.41L120.875 36.85C121.075 37.03 121.338 37.1733 121.665 37.28C121.992 37.38 122.335 37.43 122.695 37.43C123.195 37.43 123.578 37.3467 123.845 37.18C124.118 37.0133 124.255 36.7833 124.255 36.49C124.255 36.29 124.182 36.14 124.035 36.04C123.895 35.9333 123.712 35.8533 123.485 35.8C123.258 35.74 123.018 35.6833 122.765 35.63C122.512 35.5767 122.272 35.51 122.045 35.43C121.818 35.3433 121.632 35.2133 121.485 35.04C121.345 34.8667 121.275 34.6333 121.275 34.34C121.275 34.0067 121.368 33.7167 121.555 33.47C121.748 33.2233 122.015 33.0333 122.355 32.9C122.695 32.7667 123.095 32.7 123.555 32.7C123.888 32.7 124.218 32.7433 124.545 32.83C124.872 32.9167 125.135 33.0367 125.335 33.19L125.035 33.76C124.828 33.6 124.588 33.4867 124.315 33.42C124.042 33.3467 123.768 33.31 123.495 33.31C123.008 33.31 122.632 33.4 122.365 33.58C122.105 33.7533 121.975 33.9833 121.975 34.27C121.975 34.47 122.045 34.6233 122.185 34.73C122.332 34.8367 122.518 34.92 122.745 34.98C122.972 35.04 123.212 35.0967 123.465 35.15C123.725 35.1967 123.965 35.2633 124.185 35.35C124.412 35.4367 124.595 35.5633 124.735 35.73C124.882 35.89 124.955 36.1167 124.955 36.41C124.955 36.7567 124.858 37.0533 124.665 37.3C124.472 37.54 124.198 37.7267 123.845 37.86C123.498 37.9867 123.092 38.05 122.625 38.05ZM130.125 38.05C129.698 38.05 129.295 37.99 128.915 37.87C128.535 37.75 128.242 37.5967 128.035 37.41L128.375 36.85C128.575 37.03 128.838 37.1733 129.165 37.28C129.492 37.38 129.835 37.43 130.195 37.43C130.695 37.43 131.078 37.3467 131.345 37.18C131.618 37.0133 131.755 36.7833 131.755 36.49C131.755 36.29 131.682 36.14 131.535 36.04C131.395 35.9333 131.212 35.8533 130.985 35.8C130.758 35.74 130.518 35.6833 130.265 35.63C130.012 35.5767 129.772 35.51 129.545 35.43C129.318 35.3433 129.132 35.2133 128.985 35.04C128.845 34.8667 128.775 34.6333 128.775 34.34C128.775 34.0067 128.868 33.7167 129.055 33.47C129.248 33.2233 129.515 33.0333 129.855 32.9C130.195 32.7667 130.595 32.7 131.055 32.7C131.388 32.7 131.718 32.7433 132.045 32.83C132.372 32.9167 132.635 33.0367 132.835 33.19L132.535 33.76C132.328 33.6 132.088 33.4867 131.815 33.42C131.542 33.3467 131.268 33.31 130.995 33.31C130.508 33.31 130.132 33.4 129.865 33.58C129.605 33.7533 129.475 33.9833 129.475 34.27C129.475 34.47 129.545 34.6233 129.685 34.73C129.832 34.8367 130.018 34.92 130.245 34.98C130.472 35.04 130.712 35.0967 130.965 35.15C131.225 35.1967 131.465 35.2633 131.685 35.35C131.912 35.4367 132.095 35.5633 132.235 35.73C132.382 35.89 132.455 36.1167 132.455 36.41C132.455 36.7567 132.358 37.0533 132.165 37.3C131.972 37.54 131.698 37.7267 131.345 37.86C130.998 37.9867 130.592 38.05 130.125 38.05ZM137.088 32.7C137.561 32.7 137.948 32.7933 138.248 32.98C138.554 33.16 138.764 33.4233 138.878 33.77C138.998 34.1167 139.008 34.53 138.908 35.01L138.308 38H137.598L138.198 35C138.304 34.48 138.248 34.0733 138.028 33.78C137.814 33.4867 137.434 33.34 136.888 33.34C136.328 33.34 135.861 33.4933 135.488 33.8C135.121 34.1067 134.874 34.5667 134.748 35.18L134.188 38H133.478L134.958 30.58H135.668L134.928 34.26L134.748 34C135.001 33.5467 135.328 33.2167 135.728 33.01C136.134 32.8033 136.588 32.7 137.088 32.7ZM142.576 38.05C142.089 38.05 141.666 37.96 141.306 37.78C140.952 37.5933 140.676 37.3333 140.476 37C140.282 36.6667 140.186 36.2733 140.186 35.82C140.186 35.22 140.316 34.6867 140.576 34.22C140.836 33.7467 141.196 33.3767 141.656 33.11C142.116 32.8367 142.639 32.7 143.226 32.7C143.712 32.7 144.132 32.79 144.486 32.97C144.846 33.15 145.122 33.4067 145.316 33.74C145.516 34.0733 145.616 34.4667 145.616 34.92C145.616 35.52 145.486 36.0567 145.226 36.53C144.966 36.9967 144.606 37.3667 144.146 37.64C143.692 37.9133 143.169 38.05 142.576 38.05ZM142.626 37.42C143.066 37.42 143.456 37.3167 143.796 37.11C144.142 36.8967 144.412 36.6033 144.606 36.23C144.806 35.8567 144.906 35.4333 144.906 34.96C144.906 34.44 144.752 34.0367 144.446 33.75C144.146 33.4633 143.722 33.32 143.176 33.32C142.742 33.32 142.352 33.4267 142.006 33.64C141.659 33.8533 141.386 34.1467 141.186 34.52C140.992 34.8867 140.896 35.31 140.896 35.79C140.896 36.3033 141.046 36.7033 141.346 36.99C141.652 37.2767 142.079 37.42 142.626 37.42ZM149.425 38.05C148.972 38.05 148.582 37.97 148.255 37.81C147.935 37.6433 147.688 37.4067 147.515 37.1C147.348 36.7867 147.262 36.41 147.255 35.97C147.255 35.3233 147.372 34.7567 147.605 34.27C147.838 33.7767 148.168 33.3933 148.595 33.12C149.022 32.84 149.525 32.7 150.105 32.7C150.558 32.7 150.955 32.79 151.295 32.97C151.642 33.1433 151.912 33.3967 152.105 33.73C152.305 34.0633 152.405 34.46 152.405 34.92C152.405 35.3733 152.332 35.79 152.185 36.17C152.038 36.55 151.828 36.88 151.555 37.16C151.288 37.44 150.975 37.66 150.615 37.82C150.255 37.9733 149.858 38.05 149.425 38.05ZM146.115 39.94L147.545 32.75H148.225L147.925 34.26L147.635 35.31L147.525 36.41L146.825 39.94H146.115ZM149.415 37.42C149.855 37.42 150.245 37.3167 150.585 37.11C150.925 36.8967 151.192 36.6033 151.385 36.23C151.585 35.8567 151.685 35.4333 151.685 34.96C151.685 34.44 151.535 34.0367 151.235 33.75C150.935 33.4633 150.508 33.32 149.955 33.32C149.522 33.32 149.132 33.4267 148.785 33.64C148.445 33.8533 148.175 34.1467 147.975 34.52C147.782 34.8867 147.685 35.31 147.685 35.79C147.685 36.3033 147.835 36.7033 148.135 36.99C148.435 37.2767 148.862 37.42 149.415 37.42ZM153.286 38.05C153.139 38.05 153.016 38 152.916 37.9C152.816 37.8 152.766 37.6767 152.766 37.53C152.766 37.3633 152.823 37.2267 152.936 37.12C153.049 37.0133 153.179 36.96 153.326 36.96C153.473 36.96 153.593 37.01 153.686 37.11C153.786 37.2033 153.836 37.3267 153.836 37.48C153.836 37.5933 153.809 37.6933 153.756 37.78C153.709 37.86 153.643 37.9267 153.556 37.98C153.469 38.0267 153.379 38.05 153.286 38.05ZM155.405 38.05C155.258 38.05 155.135 38 155.035 37.9C154.935 37.8 154.885 37.6767 154.885 37.53C154.885 37.3633 154.942 37.2267 155.055 37.12C155.168 37.0133 155.298 36.96 155.445 36.96C155.592 36.96 155.712 37.01 155.805 37.11C155.905 37.2033 155.955 37.3267 155.955 37.48C155.955 37.5933 155.928 37.6933 155.875 37.78C155.828 37.86 155.762 37.9267 155.675 37.98C155.588 38.0267 155.498 38.05 155.405 38.05ZM157.524 38.05C157.378 38.05 157.254 38 157.154 37.9C157.054 37.8 157.004 37.6767 157.004 37.53C157.004 37.3633 157.061 37.2267 157.174 37.12C157.288 37.0133 157.418 36.96 157.564 36.96C157.711 36.96 157.831 37.01 157.924 37.11C158.024 37.2033 158.074 37.3267 158.074 37.48C158.074 37.5933 158.048 37.6933 157.994 37.78C157.948 37.86 157.881 37.9267 157.794 37.98C157.708 38.0267 157.618 38.05 157.524 38.05ZM159.643 38.05C159.497 38.05 159.373 38 159.273 37.9C159.173 37.8 159.123 37.6767 159.123 37.53C159.123 37.3633 159.18 37.2267 159.293 37.12C159.407 37.0133 159.537 36.96 159.683 36.96C159.83 36.96 159.95 37.01 160.043 37.11C160.143 37.2033 160.193 37.3267 160.193 37.48C160.193 37.5933 160.167 37.6933 160.113 37.78C160.067 37.86 160 37.9267 159.913 37.98C159.827 38.0267 159.737 38.05 159.643 38.05Z" fill="#2E1834"/>
</svg>
